<?xml version="1.0" encoding="utf-8"?>
<svg xmlns="http://www.w3.org/2000/svg" viewBox="164.2945 227.3566 171.4111 45.2869" width="171.411px" height="45.2869px" preserveAspectRatio="none"><style>
		:root { color: #000; }
		@media (prefers-color-scheme: dark) {
			:root { color: #fff; }
		}
	</style><g fill="currentColor" id="group-2" transform="matrix(0.15966901183128357, 0, 0, 0.15966901183128357, -240.95668029785156, 58.39797592163086)" style=""><path d="M 2979.22 1100.02 L 3018.03 1140.02 L 3018.03 1180.01 L 2979.22 1220.01 L 2940.43 1220.01 L 2925.06 1300 L 2890.04 1300 L 2907.516 1100 Z M 2974.13 1152.29 L 2990.35 1126.66 L 2964.56 1143.14 L 2957.87 1113.3 L 2951.36 1142.83 L 2929.06 1130.39 L 2941.46 1152.38 L 2917.16 1159.26 L 2941.72 1166.12 L 2925.44 1191.58 L 2951.28 1175.19 L 2957.85 1205.1 L 2964.49 1175.51 L 2986.8 1188.11 L 2974.45 1166.03 L 2998.8 1159.27 Z" style="stroke-width: 1;" id="path-7"/><path d="M 3200.43 1100 L 3185.51 1260.01 L 3225.45 1300.02 L 3265.41 1300.02 L 3305.34 1260.01 L 3313.51 1100 L 3288.952 1100 L 3266.199 1263.616 L 3220.151 1260.536 L 3232.108 1100 L 3200.43 1100 Z" style="stroke-width: 1;" id="path-8"/><path d="M 3055.84 1100 L 3035.07 1300 C 3035.05 1300 3065.31 1299.25 3070.61 1300 L 3079.33 1212.44 L 3120.45 1212.02 L 3135.33 1300 L 3163.07 1300 L 3154.13 1100 L 3123.91 1100.01 L 3119.96 1188.83 L 3081.31 1186.31 L 3084.98 1100 L 3055.84 1100 Z" style="stroke-width: 1;" id="path-9"/><path d="M 3343.26 1100 L 3333.84 1300 L 3361.92 1300 L 3363.21 1200 L 3430.53 1300 L 3454.77 1300 L 3461.84 1100 L 3436.37 1100 L 3418.96 1223.95 L 3363.09 1100 L 3343.26 1100 Z" style="stroke-width: 1;" id="path-10"/><path d="M 3501.64 1100 L 3483.61 1299.99 L 3520.82 1300 L 3526.27 1233.2 L 3582.55 1300 L 3611.61 1299.99 L 3536.72 1200 L 3611.61 1100 L 3583.91 1100 L 3526.27 1166.6 L 3535.12 1100 L 3501.64 1100 Z" style="stroke-width: 1;" id="path-11"/><path d="M 2674.6 1243.61 L 2641.77 1225.14 L 2538.07 1231.15 L 2623.43 1171.96 L 2623.46 1172.03 L 2637.94 1137.22 L 2637.14 1058.18 L 2685.22 1120.94 L 2685.18 1120.95 L 2718.01 1139.41 L 2821.7 1133.4 L 2736.34 1192.58 L 2736.33 1192.54 L 2721.86 1227.31 L 2734.9 1341.81 L 2674.6 1243.61 Z M 2698.24 1235.44 L 2693.9 1197.29 L 2698.72 1185.69 L 2698.72 1185.7 L 2727.17 1165.98 L 2692.61 1167.98 L 2681.67 1161.83 L 2681.68 1161.82 L 2661.59 1129.08 L 2665.94 1167.25 L 2661.11 1178.86 L 2661.1 1178.84 L 2632.64 1198.55 L 2667.21 1196.56 L 2678.16 1202.71 L 2698.24 1235.44 Z" style="stroke-width: 1; transform-origin: 2686px 1200px;" id="path-12"/></g></svg>